<mxfile host="Electron" modified="2023-12-01T08:56:24.612Z" agent="Mozilla/5.0 (Windows NT 10.0; Win64; x64) AppleWebKit/537.36 (KHTML, like Gecko) draw.io/22.1.2 Chrome/114.0.5735.289 Electron/25.9.4 Safari/537.36" etag="atGMQDs8SwzRs_pcVtHw" version="22.1.2" type="device">
  <diagram name="Trang-1" id="0fIAUOF8pv3qdebGaM4o">
    <mxGraphModel dx="1036" dy="1754" grid="1" gridSize="10" guides="1" tooltips="1" connect="1" arrows="1" fold="1" page="1" pageScale="1" pageWidth="850" pageHeight="1100" math="1" shadow="0">
      <root>
        <mxCell id="0" />
        <mxCell id="1" parent="0" />
        <mxCell id="og7eJ1KNwvm9wl_5LsM7-1" value="" style="edgeStyle=orthogonalEdgeStyle;rounded=0;orthogonalLoop=1;jettySize=auto;html=1;endArrow=none;endFill=0;labelBackgroundColor=none;fontColor=default;" edge="1" parent="1" source="og7eJ1KNwvm9wl_5LsM7-6" target="og7eJ1KNwvm9wl_5LsM7-5">
          <mxGeometry relative="1" as="geometry">
            <mxPoint x="193.74" y="-860" as="sourcePoint" />
            <Array as="points">
              <mxPoint x="83.74" y="-860" />
            </Array>
          </mxGeometry>
        </mxCell>
        <mxCell id="og7eJ1KNwvm9wl_5LsM7-2" value="" style="rounded=0;orthogonalLoop=1;jettySize=auto;html=1;startArrow=none;startFill=0;endArrow=oval;endFill=1;labelBackgroundColor=none;fontColor=default;" edge="1" parent="1" source="og7eJ1KNwvm9wl_5LsM7-3">
          <mxGeometry relative="1" as="geometry">
            <mxPoint x="84.24" y="-860" as="targetPoint" />
          </mxGeometry>
        </mxCell>
        <mxCell id="og7eJ1KNwvm9wl_5LsM7-3" value="" style="pointerEvents=1;verticalLabelPosition=bottom;shadow=0;dashed=0;align=center;html=1;verticalAlign=top;shape=mxgraph.electrical.resistors.resistor_2;direction=south;labelBackgroundColor=none;" vertex="1" parent="1">
          <mxGeometry x="73.74" y="-1000" width="20" height="80" as="geometry" />
        </mxCell>
        <mxCell id="og7eJ1KNwvm9wl_5LsM7-4" value="" style="edgeStyle=orthogonalEdgeStyle;rounded=0;orthogonalLoop=1;jettySize=auto;html=1;endArrow=none;endFill=0;labelBackgroundColor=none;fontColor=default;" edge="1" parent="1" source="og7eJ1KNwvm9wl_5LsM7-5" target="og7eJ1KNwvm9wl_5LsM7-20">
          <mxGeometry relative="1" as="geometry" />
        </mxCell>
        <mxCell id="og7eJ1KNwvm9wl_5LsM7-5" value="" style="pointerEvents=1;verticalLabelPosition=bottom;shadow=0;dashed=0;align=center;html=1;verticalAlign=top;shape=mxgraph.electrical.resistors.resistor_2;direction=south;labelBackgroundColor=none;" vertex="1" parent="1">
          <mxGeometry x="73.74" y="-800" width="20" height="80" as="geometry" />
        </mxCell>
        <mxCell id="og7eJ1KNwvm9wl_5LsM7-6" value="" style="verticalLabelPosition=bottom;shadow=0;dashed=0;align=center;html=1;verticalAlign=top;shape=mxgraph.electrical.transistors.npn_transistor_5;labelBackgroundColor=none;" vertex="1" parent="1">
          <mxGeometry x="133.74" y="-910" width="60" height="100" as="geometry" />
        </mxCell>
        <mxCell id="og7eJ1KNwvm9wl_5LsM7-7" value="" style="edgeStyle=orthogonalEdgeStyle;rounded=0;orthogonalLoop=1;jettySize=auto;html=1;endArrow=none;endFill=0;labelBackgroundColor=none;fontColor=default;" edge="1" parent="1" source="og7eJ1KNwvm9wl_5LsM7-10">
          <mxGeometry relative="1" as="geometry">
            <mxPoint x="193.74" y="-1020" as="targetPoint" />
          </mxGeometry>
        </mxCell>
        <mxCell id="og7eJ1KNwvm9wl_5LsM7-8" value="" style="edgeStyle=orthogonalEdgeStyle;rounded=0;orthogonalLoop=1;jettySize=auto;html=1;endArrow=none;endFill=0;labelBackgroundColor=none;fontColor=default;" edge="1" parent="1" source="og7eJ1KNwvm9wl_5LsM7-10" target="og7eJ1KNwvm9wl_5LsM7-3">
          <mxGeometry relative="1" as="geometry" />
        </mxCell>
        <mxCell id="og7eJ1KNwvm9wl_5LsM7-9" value="" style="edgeStyle=orthogonalEdgeStyle;rounded=0;orthogonalLoop=1;jettySize=auto;html=1;endArrow=oval;endFill=0;labelBackgroundColor=none;fontColor=default;" edge="1" parent="1" source="og7eJ1KNwvm9wl_5LsM7-10">
          <mxGeometry relative="1" as="geometry">
            <mxPoint x="133.74" y="-1040" as="targetPoint" />
          </mxGeometry>
        </mxCell>
        <mxCell id="og7eJ1KNwvm9wl_5LsM7-10" value="" style="shape=waypoint;sketch=0;size=6;pointerEvents=1;points=[];resizable=0;rotatable=0;perimeter=centerPerimeter;snapToPoint=1;verticalAlign=top;shadow=0;dashed=0;labelBackgroundColor=none;" vertex="1" parent="1">
          <mxGeometry x="123.74" y="-1030" width="20" height="20" as="geometry" />
        </mxCell>
        <mxCell id="og7eJ1KNwvm9wl_5LsM7-11" value="" style="edgeStyle=orthogonalEdgeStyle;rounded=0;orthogonalLoop=1;jettySize=auto;html=1;endArrow=none;endFill=0;labelBackgroundColor=none;fontColor=default;" edge="1" parent="1" target="og7eJ1KNwvm9wl_5LsM7-13">
          <mxGeometry relative="1" as="geometry">
            <mxPoint x="193.74" y="-1020" as="sourcePoint" />
          </mxGeometry>
        </mxCell>
        <mxCell id="og7eJ1KNwvm9wl_5LsM7-12" value="" style="edgeStyle=orthogonalEdgeStyle;rounded=0;orthogonalLoop=1;jettySize=auto;html=1;endArrow=none;endFill=0;labelBackgroundColor=none;fontColor=default;" edge="1" parent="1" source="og7eJ1KNwvm9wl_5LsM7-13">
          <mxGeometry relative="1" as="geometry">
            <Array as="points">
              <mxPoint x="193.74" y="-900" />
              <mxPoint x="193.74" y="-900" />
            </Array>
            <mxPoint x="194" y="-900" as="targetPoint" />
          </mxGeometry>
        </mxCell>
        <mxCell id="og7eJ1KNwvm9wl_5LsM7-13" value="" style="pointerEvents=1;verticalLabelPosition=bottom;shadow=0;dashed=0;align=center;html=1;verticalAlign=top;shape=mxgraph.electrical.resistors.resistor_2;direction=south;labelBackgroundColor=none;" vertex="1" parent="1">
          <mxGeometry x="183.74" y="-1000" width="20" height="80" as="geometry" />
        </mxCell>
        <mxCell id="og7eJ1KNwvm9wl_5LsM7-14" value="" style="edgeStyle=orthogonalEdgeStyle;rounded=0;orthogonalLoop=1;jettySize=auto;html=1;endArrow=none;endFill=0;labelBackgroundColor=none;fontColor=default;" edge="1" parent="1" source="og7eJ1KNwvm9wl_5LsM7-16">
          <mxGeometry relative="1" as="geometry">
            <mxPoint x="193.74" y="-690" as="targetPoint" />
          </mxGeometry>
        </mxCell>
        <mxCell id="og7eJ1KNwvm9wl_5LsM7-15" value="" style="edgeStyle=orthogonalEdgeStyle;rounded=0;orthogonalLoop=1;jettySize=auto;html=1;endArrow=none;endFill=0;" edge="1" parent="1" source="og7eJ1KNwvm9wl_5LsM7-16">
          <mxGeometry relative="1" as="geometry">
            <mxPoint x="194" y="-820" as="targetPoint" />
          </mxGeometry>
        </mxCell>
        <mxCell id="og7eJ1KNwvm9wl_5LsM7-16" value="" style="pointerEvents=1;verticalLabelPosition=bottom;shadow=0;dashed=0;align=center;html=1;verticalAlign=top;shape=mxgraph.electrical.resistors.resistor_2;direction=south;labelBackgroundColor=none;" vertex="1" parent="1">
          <mxGeometry x="183.74" y="-800" width="20" height="80" as="geometry" />
        </mxCell>
        <mxCell id="og7eJ1KNwvm9wl_5LsM7-17" style="edgeStyle=orthogonalEdgeStyle;rounded=0;orthogonalLoop=1;jettySize=auto;html=1;exitX=1;exitY=0.5;exitDx=0;exitDy=0;exitPerimeter=0;entryX=0.875;entryY=0.517;entryDx=0;entryDy=0;entryPerimeter=0;endArrow=none;endFill=0;labelBackgroundColor=none;fontColor=default;" edge="1" parent="1" source="og7eJ1KNwvm9wl_5LsM7-16" target="og7eJ1KNwvm9wl_5LsM7-16">
          <mxGeometry relative="1" as="geometry" />
        </mxCell>
        <mxCell id="og7eJ1KNwvm9wl_5LsM7-18" value="" style="edgeStyle=orthogonalEdgeStyle;rounded=0;orthogonalLoop=1;jettySize=auto;html=1;endArrow=none;endFill=0;labelBackgroundColor=none;fontColor=default;" edge="1" parent="1" source="og7eJ1KNwvm9wl_5LsM7-20" target="og7eJ1KNwvm9wl_5LsM7-16">
          <mxGeometry relative="1" as="geometry" />
        </mxCell>
        <mxCell id="og7eJ1KNwvm9wl_5LsM7-19" value="" style="edgeStyle=orthogonalEdgeStyle;rounded=0;orthogonalLoop=1;jettySize=auto;html=1;endArrow=none;endFill=0;labelBackgroundColor=none;fontColor=default;" edge="1" parent="1" source="og7eJ1KNwvm9wl_5LsM7-20" target="og7eJ1KNwvm9wl_5LsM7-21">
          <mxGeometry relative="1" as="geometry" />
        </mxCell>
        <mxCell id="og7eJ1KNwvm9wl_5LsM7-20" value="" style="shape=waypoint;sketch=0;size=6;pointerEvents=1;points=[];resizable=0;rotatable=0;perimeter=centerPerimeter;snapToPoint=1;verticalAlign=top;shadow=0;dashed=0;labelBackgroundColor=none;" vertex="1" parent="1">
          <mxGeometry x="73.74" y="-700" width="20" height="20" as="geometry" />
        </mxCell>
        <mxCell id="og7eJ1KNwvm9wl_5LsM7-21" value="" style="pointerEvents=1;verticalLabelPosition=bottom;shadow=0;dashed=0;align=center;html=1;verticalAlign=top;shape=mxgraph.electrical.signal_sources.protective_earth;labelBackgroundColor=none;" vertex="1" parent="1">
          <mxGeometry x="71.24" y="-650" width="25" height="20" as="geometry" />
        </mxCell>
        <mxCell id="og7eJ1KNwvm9wl_5LsM7-22" value="" style="edgeStyle=orthogonalEdgeStyle;rounded=0;orthogonalLoop=1;jettySize=auto;html=1;endArrow=none;endFill=0;labelBackgroundColor=none;fontColor=default;" edge="1" parent="1" source="og7eJ1KNwvm9wl_5LsM7-27" target="og7eJ1KNwvm9wl_5LsM7-26">
          <mxGeometry relative="1" as="geometry">
            <mxPoint x="413.74" y="-860" as="sourcePoint" />
            <Array as="points">
              <mxPoint x="303.74" y="-860" />
            </Array>
          </mxGeometry>
        </mxCell>
        <mxCell id="og7eJ1KNwvm9wl_5LsM7-23" value="" style="rounded=0;orthogonalLoop=1;jettySize=auto;html=1;startArrow=none;startFill=0;endArrow=oval;endFill=1;labelBackgroundColor=none;fontColor=default;" edge="1" parent="1" source="og7eJ1KNwvm9wl_5LsM7-24">
          <mxGeometry relative="1" as="geometry">
            <mxPoint x="304.24" y="-860" as="targetPoint" />
          </mxGeometry>
        </mxCell>
        <mxCell id="og7eJ1KNwvm9wl_5LsM7-24" value="" style="pointerEvents=1;verticalLabelPosition=bottom;shadow=0;dashed=0;align=center;html=1;verticalAlign=top;shape=mxgraph.electrical.resistors.resistor_2;direction=south;labelBackgroundColor=none;" vertex="1" parent="1">
          <mxGeometry x="293.74" y="-1000" width="20" height="80" as="geometry" />
        </mxCell>
        <mxCell id="og7eJ1KNwvm9wl_5LsM7-25" value="" style="edgeStyle=orthogonalEdgeStyle;rounded=0;orthogonalLoop=1;jettySize=auto;html=1;endArrow=none;endFill=0;labelBackgroundColor=none;fontColor=default;" edge="1" parent="1" source="og7eJ1KNwvm9wl_5LsM7-26" target="og7eJ1KNwvm9wl_5LsM7-40">
          <mxGeometry relative="1" as="geometry" />
        </mxCell>
        <mxCell id="og7eJ1KNwvm9wl_5LsM7-26" value="" style="pointerEvents=1;verticalLabelPosition=bottom;shadow=0;dashed=0;align=center;html=1;verticalAlign=top;shape=mxgraph.electrical.resistors.resistor_2;direction=south;labelBackgroundColor=none;" vertex="1" parent="1">
          <mxGeometry x="293.74" y="-800" width="20" height="80" as="geometry" />
        </mxCell>
        <mxCell id="og7eJ1KNwvm9wl_5LsM7-27" value="" style="verticalLabelPosition=bottom;shadow=0;dashed=0;align=center;html=1;verticalAlign=top;shape=mxgraph.electrical.transistors.npn_transistor_5;labelBackgroundColor=none;" vertex="1" parent="1">
          <mxGeometry x="353.74" y="-910" width="60" height="100" as="geometry" />
        </mxCell>
        <mxCell id="og7eJ1KNwvm9wl_5LsM7-28" value="" style="edgeStyle=orthogonalEdgeStyle;rounded=0;orthogonalLoop=1;jettySize=auto;html=1;endArrow=none;endFill=0;labelBackgroundColor=none;fontColor=default;" edge="1" parent="1" source="og7eJ1KNwvm9wl_5LsM7-30" target="og7eJ1KNwvm9wl_5LsM7-24">
          <mxGeometry relative="1" as="geometry" />
        </mxCell>
        <mxCell id="og7eJ1KNwvm9wl_5LsM7-29" value="" style="edgeStyle=orthogonalEdgeStyle;rounded=0;orthogonalLoop=1;jettySize=auto;html=1;endArrow=oval;endFill=0;labelBackgroundColor=none;fontColor=default;" edge="1" parent="1" source="og7eJ1KNwvm9wl_5LsM7-30">
          <mxGeometry relative="1" as="geometry">
            <mxPoint x="304.24" y="-1040" as="targetPoint" />
          </mxGeometry>
        </mxCell>
        <mxCell id="og7eJ1KNwvm9wl_5LsM7-30" value="" style="shape=waypoint;sketch=0;size=6;pointerEvents=1;points=[];resizable=0;rotatable=0;perimeter=centerPerimeter;snapToPoint=1;verticalAlign=top;shadow=0;dashed=0;labelBackgroundColor=none;" vertex="1" parent="1">
          <mxGeometry x="293.74" y="-1030" width="20" height="20" as="geometry" />
        </mxCell>
        <mxCell id="og7eJ1KNwvm9wl_5LsM7-31" value="" style="edgeStyle=orthogonalEdgeStyle;rounded=0;orthogonalLoop=1;jettySize=auto;html=1;endArrow=none;endFill=0;labelBackgroundColor=none;fontColor=default;entryX=1;entryY=0;entryDx=0;entryDy=0;entryPerimeter=0;" edge="1" parent="1" source="og7eJ1KNwvm9wl_5LsM7-33" target="og7eJ1KNwvm9wl_5LsM7-27">
          <mxGeometry relative="1" as="geometry">
            <Array as="points" />
          </mxGeometry>
        </mxCell>
        <mxCell id="og7eJ1KNwvm9wl_5LsM7-32" value="" style="edgeStyle=orthogonalEdgeStyle;rounded=0;orthogonalLoop=1;jettySize=auto;html=1;endArrow=none;endFill=0;labelBackgroundColor=none;fontColor=default;" edge="1" parent="1" source="og7eJ1KNwvm9wl_5LsM7-33" target="og7eJ1KNwvm9wl_5LsM7-58">
          <mxGeometry relative="1" as="geometry" />
        </mxCell>
        <mxCell id="og7eJ1KNwvm9wl_5LsM7-33" value="" style="pointerEvents=1;verticalLabelPosition=bottom;shadow=0;dashed=0;align=center;html=1;verticalAlign=top;shape=mxgraph.electrical.resistors.resistor_2;direction=south;labelBackgroundColor=none;" vertex="1" parent="1">
          <mxGeometry x="403.74" y="-1000" width="20" height="80" as="geometry" />
        </mxCell>
        <mxCell id="og7eJ1KNwvm9wl_5LsM7-34" value="" style="edgeStyle=orthogonalEdgeStyle;rounded=0;orthogonalLoop=1;jettySize=auto;html=1;endArrow=none;endFill=0;labelBackgroundColor=none;fontColor=default;entryX=1;entryY=1;entryDx=0;entryDy=0;entryPerimeter=0;" edge="1" parent="1" source="og7eJ1KNwvm9wl_5LsM7-36" target="og7eJ1KNwvm9wl_5LsM7-27">
          <mxGeometry relative="1" as="geometry">
            <Array as="points" />
          </mxGeometry>
        </mxCell>
        <mxCell id="og7eJ1KNwvm9wl_5LsM7-35" value="" style="edgeStyle=orthogonalEdgeStyle;rounded=0;orthogonalLoop=1;jettySize=auto;html=1;endArrow=none;endFill=0;labelBackgroundColor=none;fontColor=default;" edge="1" parent="1" source="og7eJ1KNwvm9wl_5LsM7-36">
          <mxGeometry relative="1" as="geometry">
            <mxPoint x="413.74" y="-690" as="targetPoint" />
          </mxGeometry>
        </mxCell>
        <mxCell id="og7eJ1KNwvm9wl_5LsM7-36" value="" style="pointerEvents=1;verticalLabelPosition=bottom;shadow=0;dashed=0;align=center;html=1;verticalAlign=top;shape=mxgraph.electrical.resistors.resistor_2;direction=south;labelBackgroundColor=none;" vertex="1" parent="1">
          <mxGeometry x="403.74" y="-800" width="20" height="80" as="geometry" />
        </mxCell>
        <mxCell id="og7eJ1KNwvm9wl_5LsM7-37" style="edgeStyle=orthogonalEdgeStyle;rounded=0;orthogonalLoop=1;jettySize=auto;html=1;exitX=1;exitY=0.5;exitDx=0;exitDy=0;exitPerimeter=0;entryX=0.875;entryY=0.517;entryDx=0;entryDy=0;entryPerimeter=0;endArrow=none;endFill=0;labelBackgroundColor=none;fontColor=default;" edge="1" parent="1" source="og7eJ1KNwvm9wl_5LsM7-36" target="og7eJ1KNwvm9wl_5LsM7-36">
          <mxGeometry relative="1" as="geometry" />
        </mxCell>
        <mxCell id="og7eJ1KNwvm9wl_5LsM7-38" value="" style="edgeStyle=orthogonalEdgeStyle;rounded=0;orthogonalLoop=1;jettySize=auto;html=1;endArrow=none;endFill=0;labelBackgroundColor=none;fontColor=default;" edge="1" parent="1" source="og7eJ1KNwvm9wl_5LsM7-40" target="og7eJ1KNwvm9wl_5LsM7-36">
          <mxGeometry relative="1" as="geometry" />
        </mxCell>
        <mxCell id="og7eJ1KNwvm9wl_5LsM7-39" value="" style="edgeStyle=orthogonalEdgeStyle;rounded=0;orthogonalLoop=1;jettySize=auto;html=1;endArrow=none;endFill=0;labelBackgroundColor=none;fontColor=default;" edge="1" parent="1" source="og7eJ1KNwvm9wl_5LsM7-40" target="og7eJ1KNwvm9wl_5LsM7-41">
          <mxGeometry relative="1" as="geometry" />
        </mxCell>
        <mxCell id="og7eJ1KNwvm9wl_5LsM7-40" value="" style="shape=waypoint;sketch=0;size=6;pointerEvents=1;points=[];resizable=0;rotatable=0;perimeter=centerPerimeter;snapToPoint=1;verticalAlign=top;shadow=0;dashed=0;labelBackgroundColor=none;" vertex="1" parent="1">
          <mxGeometry x="293.74" y="-700" width="20" height="20" as="geometry" />
        </mxCell>
        <mxCell id="og7eJ1KNwvm9wl_5LsM7-41" value="" style="pointerEvents=1;verticalLabelPosition=bottom;shadow=0;dashed=0;align=center;html=1;verticalAlign=top;shape=mxgraph.electrical.signal_sources.protective_earth;labelBackgroundColor=none;" vertex="1" parent="1">
          <mxGeometry x="291.24" y="-650" width="25" height="20" as="geometry" />
        </mxCell>
        <mxCell id="og7eJ1KNwvm9wl_5LsM7-42" style="edgeStyle=orthogonalEdgeStyle;rounded=0;orthogonalLoop=1;jettySize=auto;html=1;exitX=1;exitY=0.5;exitDx=0;exitDy=0;endArrow=none;endFill=0;labelBackgroundColor=none;fontColor=default;" edge="1" parent="1" source="og7eJ1KNwvm9wl_5LsM7-59">
          <mxGeometry relative="1" as="geometry">
            <mxPoint x="557.8947368421054" y="-1020" as="targetPoint" />
            <mxPoint x="557.5" y="-1000" as="sourcePoint" />
          </mxGeometry>
        </mxCell>
        <mxCell id="og7eJ1KNwvm9wl_5LsM7-43" value="" style="edgeStyle=orthogonalEdgeStyle;rounded=0;orthogonalLoop=1;jettySize=auto;html=1;endArrow=none;endFill=0;labelBackgroundColor=none;fontColor=default;" edge="1" parent="1" target="og7eJ1KNwvm9wl_5LsM7-55">
          <mxGeometry relative="1" as="geometry">
            <mxPoint x="557.4736842105262" y="-719.9999999999995" as="sourcePoint" />
          </mxGeometry>
        </mxCell>
        <mxCell id="og7eJ1KNwvm9wl_5LsM7-44" value="" style="edgeStyle=orthogonalEdgeStyle;rounded=0;orthogonalLoop=1;jettySize=auto;html=1;endArrow=oval;endFill=1;labelBackgroundColor=none;fontColor=default;" edge="1" parent="1">
          <mxGeometry relative="1" as="geometry">
            <mxPoint x="667.5" y="-1020" as="targetPoint" />
            <mxPoint x="607.5" y="-1020" as="sourcePoint" />
          </mxGeometry>
        </mxCell>
        <mxCell id="og7eJ1KNwvm9wl_5LsM7-45" value="" style="edgeStyle=orthogonalEdgeStyle;rounded=0;orthogonalLoop=1;jettySize=auto;html=1;endArrow=oval;endFill=1;labelBackgroundColor=none;fontColor=default;" edge="1" parent="1">
          <mxGeometry relative="1" as="geometry">
            <mxPoint x="607.5" y="-1020" as="sourcePoint" />
            <mxPoint x="557" y="-1020" as="targetPoint" />
          </mxGeometry>
        </mxCell>
        <mxCell id="og7eJ1KNwvm9wl_5LsM7-46" value="" style="edgeStyle=orthogonalEdgeStyle;rounded=0;orthogonalLoop=1;jettySize=auto;html=1;endArrow=oval;endFill=1;labelBackgroundColor=none;fontColor=default;" edge="1" parent="1" source="og7eJ1KNwvm9wl_5LsM7-48">
          <mxGeometry relative="1" as="geometry">
            <mxPoint x="668" y="-860" as="targetPoint" />
            <Array as="points">
              <mxPoint x="668" y="-860" />
              <mxPoint x="668" y="-860" />
            </Array>
          </mxGeometry>
        </mxCell>
        <mxCell id="og7eJ1KNwvm9wl_5LsM7-47" value="" style="edgeStyle=orthogonalEdgeStyle;rounded=0;orthogonalLoop=1;jettySize=auto;html=1;endArrow=none;endFill=0;labelBackgroundColor=none;fontColor=default;" edge="1" parent="1" source="og7eJ1KNwvm9wl_5LsM7-48">
          <mxGeometry relative="1" as="geometry">
            <mxPoint x="668" y="-1020" as="targetPoint" />
          </mxGeometry>
        </mxCell>
        <mxCell id="og7eJ1KNwvm9wl_5LsM7-48" value="" style="pointerEvents=1;verticalLabelPosition=bottom;shadow=0;dashed=0;align=center;html=1;verticalAlign=top;shape=mxgraph.electrical.resistors.resistor_2;direction=south;labelBackgroundColor=none;" vertex="1" parent="1">
          <mxGeometry x="657.5" y="-1000" width="20" height="80" as="geometry" />
        </mxCell>
        <mxCell id="og7eJ1KNwvm9wl_5LsM7-49" value="" style="edgeStyle=orthogonalEdgeStyle;rounded=0;orthogonalLoop=1;jettySize=auto;html=1;endArrow=oval;endFill=1;labelBackgroundColor=none;fontColor=default;" edge="1" parent="1" source="og7eJ1KNwvm9wl_5LsM7-51">
          <mxGeometry relative="1" as="geometry">
            <mxPoint x="667.5" y="-690" as="targetPoint" />
          </mxGeometry>
        </mxCell>
        <mxCell id="og7eJ1KNwvm9wl_5LsM7-50" value="" style="edgeStyle=orthogonalEdgeStyle;rounded=0;orthogonalLoop=1;jettySize=auto;html=1;endArrow=none;endFill=0;labelBackgroundColor=none;fontColor=default;" edge="1" parent="1" source="og7eJ1KNwvm9wl_5LsM7-51">
          <mxGeometry relative="1" as="geometry">
            <mxPoint x="667.5" y="-920" as="targetPoint" />
          </mxGeometry>
        </mxCell>
        <mxCell id="og7eJ1KNwvm9wl_5LsM7-51" value="" style="pointerEvents=1;verticalLabelPosition=bottom;shadow=0;dashed=0;align=center;html=1;verticalAlign=top;shape=mxgraph.electrical.resistors.resistor_2;direction=south;labelBackgroundColor=none;" vertex="1" parent="1">
          <mxGeometry x="657.5" y="-800" width="20" height="80" as="geometry" />
        </mxCell>
        <mxCell id="og7eJ1KNwvm9wl_5LsM7-52" style="edgeStyle=orthogonalEdgeStyle;rounded=0;orthogonalLoop=1;jettySize=auto;html=1;exitX=1;exitY=0.5;exitDx=0;exitDy=0;exitPerimeter=0;entryX=0.875;entryY=0.517;entryDx=0;entryDy=0;entryPerimeter=0;endArrow=none;endFill=0;labelBackgroundColor=none;fontColor=default;" edge="1" parent="1" source="og7eJ1KNwvm9wl_5LsM7-51" target="og7eJ1KNwvm9wl_5LsM7-51">
          <mxGeometry relative="1" as="geometry" />
        </mxCell>
        <mxCell id="og7eJ1KNwvm9wl_5LsM7-53" value="" style="edgeStyle=orthogonalEdgeStyle;rounded=0;orthogonalLoop=1;jettySize=auto;html=1;endArrow=none;endFill=0;labelBackgroundColor=none;fontColor=default;" edge="1" parent="1" source="og7eJ1KNwvm9wl_5LsM7-55" target="og7eJ1KNwvm9wl_5LsM7-56">
          <mxGeometry relative="1" as="geometry" />
        </mxCell>
        <mxCell id="og7eJ1KNwvm9wl_5LsM7-54" value="" style="edgeStyle=orthogonalEdgeStyle;rounded=0;orthogonalLoop=1;jettySize=auto;html=1;endArrow=none;endFill=0;labelBackgroundColor=none;fontColor=default;" edge="1" parent="1" source="og7eJ1KNwvm9wl_5LsM7-55">
          <mxGeometry relative="1" as="geometry">
            <mxPoint x="557.5" y="-790" as="targetPoint" />
          </mxGeometry>
        </mxCell>
        <mxCell id="og7eJ1KNwvm9wl_5LsM7-55" value="" style="shape=waypoint;sketch=0;size=6;pointerEvents=1;points=[];resizable=0;rotatable=0;perimeter=centerPerimeter;snapToPoint=1;verticalAlign=top;shadow=0;dashed=0;labelBackgroundColor=none;" vertex="1" parent="1">
          <mxGeometry x="547.5" y="-700" width="20" height="20" as="geometry" />
        </mxCell>
        <mxCell id="og7eJ1KNwvm9wl_5LsM7-56" value="" style="pointerEvents=1;verticalLabelPosition=bottom;shadow=0;dashed=0;align=center;html=1;verticalAlign=top;shape=mxgraph.electrical.signal_sources.protective_earth;labelBackgroundColor=none;" vertex="1" parent="1">
          <mxGeometry x="545" y="-650" width="25" height="20" as="geometry" />
        </mxCell>
        <mxCell id="og7eJ1KNwvm9wl_5LsM7-57" value="" style="edgeStyle=orthogonalEdgeStyle;rounded=0;orthogonalLoop=1;jettySize=auto;html=1;endArrow=oval;endFill=0;labelBackgroundColor=none;fontColor=default;" edge="1" parent="1" source="og7eJ1KNwvm9wl_5LsM7-58">
          <mxGeometry relative="1" as="geometry">
            <mxPoint x="414.24" y="-1040" as="targetPoint" />
          </mxGeometry>
        </mxCell>
        <mxCell id="og7eJ1KNwvm9wl_5LsM7-58" value="" style="shape=waypoint;sketch=0;size=6;pointerEvents=1;points=[];resizable=0;rotatable=0;perimeter=centerPerimeter;snapToPoint=1;verticalAlign=top;shadow=0;dashed=0;labelBackgroundColor=none;" vertex="1" parent="1">
          <mxGeometry x="403.74" y="-1030" width="20" height="20" as="geometry" />
        </mxCell>
        <mxCell id="og7eJ1KNwvm9wl_5LsM7-59" value="" style="pointerEvents=1;verticalLabelPosition=bottom;shadow=0;dashed=0;align=center;html=1;verticalAlign=top;shape=mxgraph.electrical.miscellaneous.batteryStack;direction=north;labelBackgroundColor=none;" vertex="1" parent="1">
          <mxGeometry x="540" y="-880" width="35" height="50" as="geometry" />
        </mxCell>
        <mxCell id="og7eJ1KNwvm9wl_5LsM7-60" value="" style="edgeStyle=orthogonalEdgeStyle;rounded=0;orthogonalLoop=1;jettySize=auto;html=1;endArrow=none;endFill=0;labelBackgroundColor=none;fontColor=default;" edge="1" parent="1" target="og7eJ1KNwvm9wl_5LsM7-59">
          <mxGeometry relative="1" as="geometry">
            <mxPoint x="557.5" y="-790" as="sourcePoint" />
          </mxGeometry>
        </mxCell>
        <mxCell id="og7eJ1KNwvm9wl_5LsM7-61" value="" style="edgeStyle=orthogonalEdgeStyle;rounded=0;orthogonalLoop=1;jettySize=auto;html=1;endArrow=none;endFill=0;labelBackgroundColor=none;fontColor=default;" edge="1" parent="1" source="og7eJ1KNwvm9wl_5LsM7-62" target="og7eJ1KNwvm9wl_5LsM7-51">
          <mxGeometry relative="1" as="geometry" />
        </mxCell>
        <mxCell id="og7eJ1KNwvm9wl_5LsM7-62" value="" style="pointerEvents=1;verticalLabelPosition=bottom;shadow=0;dashed=0;align=center;html=1;verticalAlign=top;shape=mxgraph.electrical.signal_sources.protective_earth;labelBackgroundColor=none;" vertex="1" parent="1">
          <mxGeometry x="655" y="-650" width="25" height="20" as="geometry" />
        </mxCell>
        <mxCell id="og7eJ1KNwvm9wl_5LsM7-63" value="" style="edgeStyle=orthogonalEdgeStyle;rounded=0;orthogonalLoop=1;jettySize=auto;html=1;endArrow=none;endFill=0;labelBackgroundColor=none;fontColor=default;" edge="1" parent="1" source="og7eJ1KNwvm9wl_5LsM7-65">
          <mxGeometry relative="1" as="geometry">
            <mxPoint x="665" y="-860" as="targetPoint" />
          </mxGeometry>
        </mxCell>
        <mxCell id="og7eJ1KNwvm9wl_5LsM7-64" value="" style="edgeStyle=orthogonalEdgeStyle;rounded=0;orthogonalLoop=1;jettySize=auto;html=1;endArrow=none;endFill=0;labelBackgroundColor=none;fontColor=default;" edge="1" parent="1" source="og7eJ1KNwvm9wl_5LsM7-65" target="og7eJ1KNwvm9wl_5LsM7-71">
          <mxGeometry relative="1" as="geometry">
            <Array as="points">
              <mxPoint x="779.76" y="-800" />
              <mxPoint x="779.76" y="-800" />
            </Array>
          </mxGeometry>
        </mxCell>
        <mxCell id="og7eJ1KNwvm9wl_5LsM7-65" value="" style="verticalLabelPosition=bottom;shadow=0;dashed=0;align=center;html=1;verticalAlign=top;shape=mxgraph.electrical.transistors.npn_transistor_5;labelBackgroundColor=none;" vertex="1" parent="1">
          <mxGeometry x="720" y="-910" width="60" height="100" as="geometry" />
        </mxCell>
        <mxCell id="og7eJ1KNwvm9wl_5LsM7-66" value="" style="edgeStyle=orthogonalEdgeStyle;rounded=0;orthogonalLoop=1;jettySize=auto;html=1;endArrow=none;endFill=0;labelBackgroundColor=none;fontColor=default;entryX=1;entryY=0;entryDx=0;entryDy=0;entryPerimeter=0;" edge="1" parent="1" source="og7eJ1KNwvm9wl_5LsM7-69" target="og7eJ1KNwvm9wl_5LsM7-65">
          <mxGeometry relative="1" as="geometry">
            <mxPoint x="779.76" y="-920" as="targetPoint" />
            <Array as="points" />
          </mxGeometry>
        </mxCell>
        <mxCell id="og7eJ1KNwvm9wl_5LsM7-67" value="" style="edgeStyle=orthogonalEdgeStyle;rounded=0;orthogonalLoop=1;jettySize=auto;html=1;endArrow=oval;endFill=0;labelBackgroundColor=none;fontColor=default;" edge="1" parent="1" source="og7eJ1KNwvm9wl_5LsM7-69">
          <mxGeometry relative="1" as="geometry">
            <mxPoint x="780" y="-1040" as="targetPoint" />
          </mxGeometry>
        </mxCell>
        <mxCell id="og7eJ1KNwvm9wl_5LsM7-68" value="" style="edgeStyle=orthogonalEdgeStyle;rounded=0;orthogonalLoop=1;jettySize=auto;html=1;endArrow=oval;endFill=1;labelBackgroundColor=none;fontColor=default;" edge="1" parent="1" source="og7eJ1KNwvm9wl_5LsM7-69">
          <mxGeometry relative="1" as="geometry">
            <mxPoint x="780" y="-1020" as="targetPoint" />
          </mxGeometry>
        </mxCell>
        <mxCell id="og7eJ1KNwvm9wl_5LsM7-69" value="" style="pointerEvents=1;verticalLabelPosition=bottom;shadow=0;dashed=0;align=center;html=1;verticalAlign=top;shape=mxgraph.electrical.resistors.resistor_2;direction=south;labelBackgroundColor=none;" vertex="1" parent="1">
          <mxGeometry x="770" y="-1000" width="20" height="80" as="geometry" />
        </mxCell>
        <mxCell id="og7eJ1KNwvm9wl_5LsM7-70" value="" style="edgeStyle=orthogonalEdgeStyle;rounded=0;orthogonalLoop=1;jettySize=auto;html=1;endArrow=none;endFill=0;labelBackgroundColor=none;fontColor=default;" edge="1" parent="1" source="og7eJ1KNwvm9wl_5LsM7-71">
          <mxGeometry relative="1" as="geometry">
            <mxPoint x="780" y="-690" as="targetPoint" />
          </mxGeometry>
        </mxCell>
        <mxCell id="og7eJ1KNwvm9wl_5LsM7-71" value="" style="pointerEvents=1;verticalLabelPosition=bottom;shadow=0;dashed=0;align=center;html=1;verticalAlign=top;shape=mxgraph.electrical.resistors.resistor_2;direction=south;labelBackgroundColor=none;" vertex="1" parent="1">
          <mxGeometry x="770" y="-790" width="20" height="70" as="geometry" />
        </mxCell>
        <mxCell id="og7eJ1KNwvm9wl_5LsM7-72" value="" style="edgeStyle=orthogonalEdgeStyle;rounded=0;orthogonalLoop=1;jettySize=auto;html=1;labelBackgroundColor=none;fontColor=default;endArrow=none;endFill=0;" edge="1" parent="1" target="og7eJ1KNwvm9wl_5LsM7-51">
          <mxGeometry relative="1" as="geometry">
            <mxPoint x="780" y="-690" as="sourcePoint" />
          </mxGeometry>
        </mxCell>
        <mxCell id="og7eJ1KNwvm9wl_5LsM7-73" value="" style="shape=flexArrow;endArrow=classic;html=1;rounded=0;labelBackgroundColor=none;fontColor=default;fillColor=#6a00ff;strokeColor=#3700CC;" edge="1" parent="1">
          <mxGeometry width="50" height="50" relative="1" as="geometry">
            <mxPoint x="231.24" y="-860" as="sourcePoint" />
            <mxPoint x="281.24" y="-860.5" as="targetPoint" />
          </mxGeometry>
        </mxCell>
        <mxCell id="og7eJ1KNwvm9wl_5LsM7-74" value="" style="shape=flexArrow;endArrow=classic;html=1;rounded=0;labelBackgroundColor=none;fontColor=default;fillColor=#6a00ff;strokeColor=#3700CC;" edge="1" parent="1">
          <mxGeometry width="50" height="50" relative="1" as="geometry">
            <mxPoint x="451.24" y="-860" as="sourcePoint" />
            <mxPoint x="499.24" y="-860.5" as="targetPoint" />
          </mxGeometry>
        </mxCell>
        <mxCell id="og7eJ1KNwvm9wl_5LsM7-75" value="$$V_{CC}$$" style="text;html=1;strokeColor=none;fillColor=none;align=center;verticalAlign=middle;whiteSpace=wrap;rounded=0;" vertex="1" parent="1">
          <mxGeometry x="103.74000000000001" y="-1080" width="60" height="30" as="geometry" />
        </mxCell>
        <mxCell id="og7eJ1KNwvm9wl_5LsM7-76" value="$$V_{CC}$$" style="text;html=1;strokeColor=none;fillColor=none;align=center;verticalAlign=middle;whiteSpace=wrap;rounded=0;" vertex="1" parent="1">
          <mxGeometry x="273.74" y="-1080" width="60" height="30" as="geometry" />
        </mxCell>
        <mxCell id="og7eJ1KNwvm9wl_5LsM7-77" value="$$V_{CC}$$" style="text;html=1;strokeColor=none;fillColor=none;align=center;verticalAlign=middle;whiteSpace=wrap;rounded=0;" vertex="1" parent="1">
          <mxGeometry x="383.74" y="-1080" width="60" height="30" as="geometry" />
        </mxCell>
        <mxCell id="og7eJ1KNwvm9wl_5LsM7-78" value="$$V_{CC}$$" style="text;html=1;strokeColor=none;fillColor=none;align=center;verticalAlign=middle;whiteSpace=wrap;rounded=0;" vertex="1" parent="1">
          <mxGeometry x="721.22" y="-1080" width="60" height="30" as="geometry" />
        </mxCell>
        <mxCell id="og7eJ1KNwvm9wl_5LsM7-79" value="$$R_C$$" style="text;html=1;strokeColor=none;fillColor=none;align=center;verticalAlign=middle;whiteSpace=wrap;rounded=0;" vertex="1" parent="1">
          <mxGeometry x="190" y="-970" width="60" height="30" as="geometry" />
        </mxCell>
        <mxCell id="og7eJ1KNwvm9wl_5LsM7-80" value="$$R_C$$" style="text;html=1;strokeColor=none;fillColor=none;align=center;verticalAlign=middle;whiteSpace=wrap;rounded=0;" vertex="1" parent="1">
          <mxGeometry x="410" y="-980" width="60" height="30" as="geometry" />
        </mxCell>
        <mxCell id="og7eJ1KNwvm9wl_5LsM7-81" value="$$R_C$$" style="text;html=1;strokeColor=none;fillColor=none;align=center;verticalAlign=middle;whiteSpace=wrap;rounded=0;" vertex="1" parent="1">
          <mxGeometry x="780" y="-975" width="60" height="30" as="geometry" />
        </mxCell>
        <mxCell id="og7eJ1KNwvm9wl_5LsM7-82" value="$$R_E$$" style="text;html=1;strokeColor=none;fillColor=none;align=center;verticalAlign=middle;whiteSpace=wrap;rounded=0;" vertex="1" parent="1">
          <mxGeometry x="193.74" y="-775" width="60" height="30" as="geometry" />
        </mxCell>
        <mxCell id="og7eJ1KNwvm9wl_5LsM7-83" value="$$R_E$$" style="text;html=1;strokeColor=none;fillColor=none;align=center;verticalAlign=middle;whiteSpace=wrap;rounded=0;" vertex="1" parent="1">
          <mxGeometry x="413.74" y="-770" width="60" height="30" as="geometry" />
        </mxCell>
        <mxCell id="og7eJ1KNwvm9wl_5LsM7-84" value="$$R_E$$" style="text;html=1;strokeColor=none;fillColor=none;align=center;verticalAlign=middle;whiteSpace=wrap;rounded=0;" vertex="1" parent="1">
          <mxGeometry x="780" y="-770" width="60" height="30" as="geometry" />
        </mxCell>
        <mxCell id="og7eJ1KNwvm9wl_5LsM7-85" value="$$R_1$$" style="text;html=1;strokeColor=none;fillColor=none;align=center;verticalAlign=middle;whiteSpace=wrap;rounded=0;" vertex="1" parent="1">
          <mxGeometry x="300" y="-975" width="60" height="30" as="geometry" />
        </mxCell>
        <mxCell id="og7eJ1KNwvm9wl_5LsM7-86" value="$$R_1$$" style="text;html=1;strokeColor=none;fillColor=none;align=center;verticalAlign=middle;whiteSpace=wrap;rounded=0;" vertex="1" parent="1">
          <mxGeometry x="83.74000000000001" y="-970" width="60" height="30" as="geometry" />
        </mxCell>
        <mxCell id="og7eJ1KNwvm9wl_5LsM7-87" value="$$R_1$$" style="text;html=1;strokeColor=none;fillColor=none;align=center;verticalAlign=middle;whiteSpace=wrap;rounded=0;" vertex="1" parent="1">
          <mxGeometry x="658.76" y="-975" width="60" height="30" as="geometry" />
        </mxCell>
        <mxCell id="og7eJ1KNwvm9wl_5LsM7-88" value="$$R_2$$&lt;br&gt;" style="text;html=1;strokeColor=none;fillColor=none;align=center;verticalAlign=middle;whiteSpace=wrap;rounded=0;" vertex="1" parent="1">
          <mxGeometry x="73.74000000000001" y="-770" width="60" height="30" as="geometry" />
        </mxCell>
        <mxCell id="og7eJ1KNwvm9wl_5LsM7-89" value="$$R_2$$&lt;br&gt;" style="text;html=1;strokeColor=none;fillColor=none;align=center;verticalAlign=middle;whiteSpace=wrap;rounded=0;" vertex="1" parent="1">
          <mxGeometry x="300" y="-775" width="60" height="30" as="geometry" />
        </mxCell>
        <mxCell id="og7eJ1KNwvm9wl_5LsM7-90" value="$$R_2$$&lt;br&gt;" style="text;html=1;strokeColor=none;fillColor=none;align=center;verticalAlign=middle;whiteSpace=wrap;rounded=0;" vertex="1" parent="1">
          <mxGeometry x="660" y="-770" width="60" height="30" as="geometry" />
        </mxCell>
        <mxCell id="og7eJ1KNwvm9wl_5LsM7-91" value="" style="endArrow=classic;html=1;rounded=0;" edge="1" parent="1">
          <mxGeometry width="50" height="50" relative="1" as="geometry">
            <mxPoint x="170" y="-980" as="sourcePoint" />
            <mxPoint x="170" y="-940" as="targetPoint" />
          </mxGeometry>
        </mxCell>
        <mxCell id="og7eJ1KNwvm9wl_5LsM7-92" value="" style="endArrow=classic;html=1;rounded=0;" edge="1" parent="1">
          <mxGeometry width="50" height="50" relative="1" as="geometry">
            <mxPoint x="748.76" y="-980" as="sourcePoint" />
            <mxPoint x="748.76" y="-930" as="targetPoint" />
          </mxGeometry>
        </mxCell>
        <mxCell id="og7eJ1KNwvm9wl_5LsM7-93" value="$$I_{CQ}$$&lt;br&gt;" style="text;html=1;strokeColor=none;fillColor=none;align=center;verticalAlign=middle;whiteSpace=wrap;rounded=0;" vertex="1" parent="1">
          <mxGeometry x="120" y="-960" width="60" height="30" as="geometry" />
        </mxCell>
        <mxCell id="og7eJ1KNwvm9wl_5LsM7-94" value="$$I_{CQ}$$&lt;br&gt;" style="text;html=1;strokeColor=none;fillColor=none;align=center;verticalAlign=middle;whiteSpace=wrap;rounded=0;" vertex="1" parent="1">
          <mxGeometry x="350" y="-960" width="60" height="30" as="geometry" />
        </mxCell>
        <mxCell id="og7eJ1KNwvm9wl_5LsM7-95" value="$$I_{CQ}$$&lt;br&gt;" style="text;html=1;strokeColor=none;fillColor=none;align=center;verticalAlign=middle;whiteSpace=wrap;rounded=0;" vertex="1" parent="1">
          <mxGeometry x="698.76" y="-950" width="60" height="30" as="geometry" />
        </mxCell>
        <mxCell id="og7eJ1KNwvm9wl_5LsM7-96" value="$$V_{CEQ}$$&lt;br&gt;" style="text;html=1;strokeColor=none;fillColor=none;align=center;verticalAlign=middle;whiteSpace=wrap;rounded=0;" vertex="1" parent="1">
          <mxGeometry x="390" y="-870" width="60" height="30" as="geometry" />
        </mxCell>
        <mxCell id="og7eJ1KNwvm9wl_5LsM7-97" value="$$V_{CEQ}$$&lt;br&gt;" style="text;html=1;strokeColor=none;fillColor=none;align=center;verticalAlign=middle;whiteSpace=wrap;rounded=0;" vertex="1" parent="1">
          <mxGeometry x="160" y="-870" width="60" height="30" as="geometry" />
        </mxCell>
        <mxCell id="og7eJ1KNwvm9wl_5LsM7-98" value="$$V_{CEQ}$$&lt;br&gt;" style="text;html=1;strokeColor=none;fillColor=none;align=center;verticalAlign=middle;whiteSpace=wrap;rounded=0;" vertex="1" parent="1">
          <mxGeometry x="748.76" y="-870" width="60" height="30" as="geometry" />
        </mxCell>
        <mxCell id="og7eJ1KNwvm9wl_5LsM7-99" value="$$V_{CC}$$" style="text;html=1;strokeColor=none;fillColor=none;align=center;verticalAlign=middle;whiteSpace=wrap;rounded=0;" vertex="1" parent="1">
          <mxGeometry x="500" y="-870" width="60" height="30" as="geometry" />
        </mxCell>
        <mxCell id="og7eJ1KNwvm9wl_5LsM7-100" value="+" style="text;html=1;strokeColor=none;fillColor=none;align=center;verticalAlign=middle;whiteSpace=wrap;rounded=0;" vertex="1" parent="1">
          <mxGeometry x="510" y="-890" width="60" height="30" as="geometry" />
        </mxCell>
        <mxCell id="og7eJ1KNwvm9wl_5LsM7-101" value="" style="endArrow=classic;html=1;rounded=0;" edge="1" parent="1">
          <mxGeometry width="50" height="50" relative="1" as="geometry">
            <mxPoint x="390" y="-980" as="sourcePoint" />
            <mxPoint x="390" y="-930" as="targetPoint" />
          </mxGeometry>
        </mxCell>
        <mxCell id="og7eJ1KNwvm9wl_5LsM7-102" value="+" style="text;html=1;strokeColor=none;fillColor=none;align=center;verticalAlign=middle;whiteSpace=wrap;rounded=0;" vertex="1" parent="1">
          <mxGeometry x="390" y="-900" width="60" height="30" as="geometry" />
        </mxCell>
        <mxCell id="og7eJ1KNwvm9wl_5LsM7-103" value="+" style="text;html=1;strokeColor=none;fillColor=none;align=center;verticalAlign=middle;whiteSpace=wrap;rounded=0;" vertex="1" parent="1">
          <mxGeometry x="170" y="-900" width="60" height="30" as="geometry" />
        </mxCell>
        <mxCell id="og7eJ1KNwvm9wl_5LsM7-104" value="-" style="text;html=1;strokeColor=none;fillColor=none;align=center;verticalAlign=middle;whiteSpace=wrap;rounded=0;" vertex="1" parent="1">
          <mxGeometry x="510" y="-850" width="60" height="30" as="geometry" />
        </mxCell>
        <mxCell id="og7eJ1KNwvm9wl_5LsM7-105" value="-" style="text;html=1;strokeColor=none;fillColor=none;align=center;verticalAlign=middle;whiteSpace=wrap;rounded=0;" vertex="1" parent="1">
          <mxGeometry x="390" y="-850" width="60" height="30" as="geometry" />
        </mxCell>
        <mxCell id="og7eJ1KNwvm9wl_5LsM7-106" value="-" style="text;html=1;strokeColor=none;fillColor=none;align=center;verticalAlign=middle;whiteSpace=wrap;rounded=0;" vertex="1" parent="1">
          <mxGeometry x="170" y="-850" width="60" height="30" as="geometry" />
        </mxCell>
      </root>
    </mxGraphModel>
  </diagram>
</mxfile>
